<?xml version="1.0" encoding="utf-8"?>
<!-- Generator: Adobe Illustrator 22.0.1, SVG Export Plug-In . SVG Version: 6.00 Build 0)  -->
<svg version="1.1" xmlns="http://www.w3.org/2000/svg" xmlns:xlink="http://www.w3.org/1999/xlink" x="0px" y="0px"
	 viewBox="0 0 800 800" style="enable-background:new 0 0 800 800;" xml:space="preserve">
<style type="text/css">
	.st0{fill:#EDC20D;}
	.st1{fill:#3297D7;}
	.st2{fill:#2CCA6E;}
	.st3{fill:#E34B3A;}
	.st4{opacity:0.5;fill:#FFFFFF;stroke:#000000;stroke-width:6;stroke-miterlimit:10;}
	.st5{fill:#FFFFFF;}
</style>
<g id="Warstwa_4">
	<polyline class="st0" points="700,808 341,330 680,-16 868,-11 864,808 	"/>
</g>
<g id="Warstwa_2">
	<rect x="-123" y="-39" class="st1" width="238" height="890"/>
</g>
<g id="Warstwa_3">
	<polyline class="st2" points="161,819 161,505 317,356 661,819 661,819 631,819 631,819 631,819 631,819 	"/>
</g>
<g id="Warstwa_5">
	<polyline class="st3" points="150,-24 161,452 665,-16 	"/>
</g>
<g id="Warstwa_1">
	<g>
		<path class="st4" d="M82,800V0h106v396.7L584.7,0H728L392.8,324.6L743,800H603.3L318.6,396.5L188,523v277H82z"/>
	</g>
</g>
<g id="Warstwa_6">
	<g>
		<path class="st5" d="M82,800V0h106v396.7L584.7,0H728L392.8,324.6L743,800H603.3L318.6,396.5L188,523v277H82z"/>
	</g>
	<g>
	</g>
	<g>
	</g>
	<g>
	</g>
	<g>
	</g>
	<g>
	</g>
</g>
</svg>
